<svg width="17" height="17" viewBox="0 0 17 17" fill="none" xmlns="http://www.w3.org/2000/svg">
<path d="M0 8.25018C0 8.71258 0.2907 9.09473 0.667873 9.15521L0.772724 9.16354L14.3563 9.16281L9.44895 14.9395C9.1465 15.2954 9.14545 15.8737 9.44655 16.2312C9.72035 16.5562 10.1495 16.5867 10.4526 16.3222L10.5394 16.234L16.7727 8.8979C16.8126 8.85098 16.8472 8.8002 16.8766 8.74659C16.8849 8.73045 16.8933 8.71393 16.9013 8.69709C16.9087 8.68265 16.9154 8.66766 16.9216 8.6525C16.9304 8.63045 16.9389 8.60766 16.9466 8.58442C16.9529 8.56649 16.9582 8.54906 16.963 8.53148C16.9686 8.50969 16.9742 8.48647 16.9789 8.4629C16.9825 8.44644 16.9853 8.43059 16.9877 8.41469C16.9912 8.39103 16.9941 8.36654 16.9962 8.34176C16.998 8.32286 16.9991 8.30414 16.9996 8.2854C16.9998 8.27403 17 8.26213 17 8.25018L16.9996 8.2148C16.999 8.19687 16.998 8.17896 16.9965 8.1611L17 8.25018C17 8.19255 16.9955 8.13615 16.9868 8.08148C16.9848 8.06842 16.9825 8.05502 16.9798 8.04167C16.9743 8.01417 16.968 7.98769 16.9607 7.96174C16.9571 7.94884 16.9529 7.93506 16.9485 7.92138C16.9394 7.8939 16.9296 7.8677 16.9188 7.84218C16.9138 7.83018 16.9082 7.81762 16.9023 7.80519C16.8926 7.7849 16.8827 7.76562 16.8722 7.74683C16.8647 7.73353 16.8565 7.71969 16.8479 7.70607L16.8413 7.69554C16.8204 7.66339 16.7979 7.63291 16.7737 7.60433L16.7727 7.60349L10.5395 0.266181C10.2371 -0.0897687 9.74775 -0.0885713 9.44665 0.268855C9.17284 0.593788 9.14879 1.10127 9.37385 1.45828L9.44885 1.56053L14.3542 7.33609L0.772724 7.33682C0.345961 7.33682 0 7.74575 0 8.25018Z" fill="#14181D"/>
</svg>
