<svg width="17" height="14" viewBox="0 0 17 14" fill="none" xmlns="http://www.w3.org/2000/svg">
<path d="M0 6.97969C0 6.58848 0.290704 6.26518 0.667873 6.21401L0.772727 6.20696L14.3562 6.20758L9.44892 1.3203C9.1465 1.01919 9.14545 0.529923 9.44657 0.227505C9.72031 -0.0474206 10.1495 -0.073285 10.4525 0.150519L10.5394 0.225151L16.7727 6.4317C16.8126 6.47139 16.8472 6.51435 16.8766 6.55971C16.8849 6.57337 16.8933 6.58734 16.9013 6.60158C16.9087 6.6138 16.9154 6.62648 16.9216 6.63931C16.9304 6.65797 16.9389 6.67724 16.9466 6.69691C16.9529 6.71208 16.9582 6.72683 16.963 6.74169C16.9686 6.76013 16.9742 6.77978 16.9789 6.79972C16.9825 6.81365 16.9853 6.82705 16.9877 6.84051C16.9912 6.86053 16.9941 6.88124 16.9962 6.90221C16.998 6.9182 16.9991 6.93404 16.9997 6.94989C16.9998 6.95951 17 6.96957 17 6.97969L16.9996 7.00962C16.999 7.02478 16.998 7.03994 16.9965 7.05505L17 6.97969C17 7.02845 16.9955 7.07616 16.9868 7.12241C16.9848 7.13346 16.9825 7.1448 16.9798 7.1561C16.9743 7.17936 16.968 7.20176 16.9607 7.22372C16.9571 7.23463 16.9529 7.24629 16.9485 7.25786C16.9394 7.28111 16.9296 7.30328 16.9188 7.32487C16.9138 7.33502 16.9082 7.34565 16.9023 7.35617C16.8926 7.37333 16.8827 7.38964 16.8722 7.40554C16.8647 7.41679 16.8565 7.4285 16.8479 7.44003L16.8413 7.44893C16.8204 7.47613 16.7979 7.50191 16.7737 7.52609L16.7727 7.5268L10.5394 13.7344C10.237 14.0355 9.74776 14.0345 9.44661 13.7321C9.17285 13.4572 9.1488 13.0279 9.37388 12.7258L9.44888 12.6393L14.3542 7.75303L0.772727 7.75241C0.345962 7.75241 0 7.40645 0 6.97969Z" fill="#14181D"/>
</svg>
